<?xml version="1.0" encoding="UTF-8" standalone="no"?>
<!DOCTYPE svg PUBLIC "-//W3C//DTD SVG 1.1//EN" "http://www.w3.org/Graphics/SVG/1.1/DTD/svg11.dtd">
<svg width="100%" height="100%" viewBox="0 0 327 63" version="1.1" xmlns="http://www.w3.org/2000/svg" xmlns:xlink="http://www.w3.org/1999/xlink" xml:space="preserve" xmlns:serif="http://www.serif.com/" style="fill-rule:evenodd;clip-rule:evenodd;stroke-linejoin:round;stroke-miterlimit:2;">
    <g>
        <path d="M30.645,16.099L38.389,14.023L36.336,6.362C35.495,2.718 32.233,0 28.334,0C24.435,0 21.173,2.718 20.332,6.362L18.279,14.023L26.023,16.099C26.757,16.313 27.532,16.43 28.334,16.43C29.136,16.43 29.911,16.313 30.645,16.099" style="fill:rgb(255,113,84);fill-rule:nonzero;"/>
        <path d="M16.198,21.772L18.273,14.028L10.612,11.975C7.035,10.881 3.051,12.348 1.101,15.725C-0.848,19.102 -0.126,23.285 2.609,25.835L8.218,31.444L13.888,25.775C14.44,25.247 14.93,24.635 15.33,23.94C15.731,23.244 16.018,22.515 16.198,21.772" style="fill:rgb(255,113,84);fill-rule:nonzero;"/>
        <path d="M13.888,37.117L8.218,31.447L2.609,37.056C-0.126,39.607 -0.848,43.791 1.102,47.167C3.051,50.544 7.036,52.011 10.611,50.917L18.274,48.864L16.198,41.119C16.018,40.378 15.732,39.647 15.33,38.952C14.929,38.258 14.44,37.645 13.888,37.117" style="fill:rgb(255,113,84);fill-rule:nonzero;"/>
        <path d="M26.023,46.793L18.279,48.869L20.332,56.53C21.173,60.174 24.435,62.892 28.334,62.892C32.233,62.892 35.495,60.174 36.336,56.53L38.389,48.869L30.645,46.793C29.911,46.579 29.136,46.462 28.334,46.462C27.532,46.462 26.757,46.579 26.023,46.793" style="fill:rgb(255,113,84);fill-rule:nonzero;"/>
        <path d="M40.473,41.119L38.397,48.864L46.059,50.917C49.635,52.011 53.62,50.544 55.57,47.167C57.52,43.79 56.796,39.607 54.061,37.057L48.453,31.448L42.783,37.117C42.23,37.645 41.742,38.257 41.34,38.952C40.94,39.647 40.654,40.377 40.473,41.119" style="fill:rgb(255,113,84);fill-rule:nonzero;"/>
        <path d="M42.784,25.775L48.453,31.445L54.062,25.836C56.797,23.285 57.519,19.101 55.569,15.725C53.62,12.348 49.635,10.881 46.06,11.975L38.397,14.028L40.473,21.773C40.653,22.514 40.939,23.245 41.341,23.94C41.742,24.634 42.231,25.247 42.784,25.775" style="fill:rgb(255,113,84);fill-rule:nonzero;"/>
    </g>
    <path d="M111.783,14.522L111.783,50.09L103.119,50.09L103.119,27.848L95.418,50.09L87.919,50.09L80.167,27.797L80.167,50.09L71.503,50.09L71.503,14.522L82.093,14.522L91.77,39.298L101.245,14.522L111.783,14.522Z" style="fill:rgb(1,42,87);fill-rule:nonzero;"/>
    <path d="M149.986,32.104C149.986,35.617 149.235,38.733 147.731,41.452C146.228,44.171 144.067,46.29 141.246,47.81C138.426,49.33 135.107,50.09 131.29,50.09L117.762,50.09L117.762,14.269L131.29,14.269C135.141,14.269 138.468,15.012 141.271,16.498C144.075,17.985 146.228,20.079 147.731,22.781C149.235,25.483 149.986,28.591 149.986,32.104ZM130.53,42.338C133.908,42.338 136.534,41.443 138.409,39.653C140.283,37.863 141.221,35.346 141.221,32.104C141.221,28.861 140.283,26.345 138.409,24.554C136.534,22.764 133.908,21.869 130.53,21.869L126.426,21.869L126.426,42.338L130.53,42.338Z" style="fill:rgb(1,42,87);fill-rule:nonzero;"/>
    <path d="M196.245,21.818L188.999,50.09L179.322,50.09L174.205,31.141L169.037,50.09L159.359,50.09L152.114,21.818L160.778,21.818L164.527,42.186L169.797,21.818L179.018,21.818L184.439,42.237L188.189,21.818L196.245,21.818Z" style="fill:rgb(1,42,87);fill-rule:nonzero;"/>
    <path d="M210.127,21.464C212.289,21.464 214.147,21.953 215.701,22.933C217.255,23.913 218.403,25.247 219.146,26.936L219.146,21.818L227.759,21.818L227.759,50.09L219.146,50.09L219.146,44.973C218.403,46.662 217.255,47.996 215.701,48.976C214.147,49.955 212.289,50.445 210.127,50.445C207.797,50.445 205.711,49.862 203.87,48.697C202.029,47.532 200.577,45.851 199.513,43.656C198.449,41.46 197.917,38.893 197.917,35.954C197.917,32.982 198.449,30.406 199.513,28.228C200.577,26.049 202.029,24.377 203.87,23.212C205.711,22.046 207.797,21.464 210.127,21.464ZM212.914,29.064C211.056,29.064 209.562,29.672 208.43,30.888C207.299,32.104 206.733,33.793 206.733,35.954C206.733,38.116 207.299,39.805 208.43,41.021C209.562,42.237 211.056,42.845 212.914,42.845C214.738,42.845 216.233,42.22 217.398,40.97C218.563,39.721 219.146,38.049 219.146,35.954C219.146,33.826 218.563,32.146 217.398,30.913C216.233,29.68 214.738,29.064 212.914,29.064Z" style="fill:rgb(1,42,87);fill-rule:nonzero;"/>
    <path d="M249.749,42.642L249.749,50.09L245.847,50.09C242.537,50.09 239.962,49.271 238.121,47.633C236.28,45.995 235.359,43.284 235.359,39.501L235.359,29.114L231.559,29.114L231.559,21.818L235.359,21.818L235.359,14.877L244.023,14.877L244.023,21.818L249.698,21.818L249.698,29.114L244.023,29.114L244.023,39.653C244.023,40.768 244.251,41.545 244.707,41.984C245.163,42.423 245.932,42.642 247.013,42.642L249.749,42.642Z" style="fill:rgb(1,42,87);fill-rule:nonzero;"/>
    <path d="M267.381,21.464C271.029,21.464 274.086,22.469 276.551,24.478C279.017,26.488 280.571,29.249 281.213,32.762L272.042,32.762C271.772,31.546 271.215,30.601 270.37,29.925C269.526,29.249 268.462,28.912 267.178,28.912C265.658,28.912 264.408,29.511 263.429,30.71C262.449,31.909 261.959,33.657 261.959,35.954C261.959,38.251 262.449,39.999 263.429,41.198C264.408,42.397 265.658,42.997 267.178,42.997C268.462,42.997 269.526,42.659 270.37,41.984C271.215,41.308 271.772,40.362 272.042,39.146L281.213,39.146C280.571,42.659 279.017,45.421 276.551,47.43C274.086,49.44 271.029,50.445 267.381,50.445C264.611,50.445 262.154,49.862 260.009,48.697C257.864,47.532 256.183,45.851 254.967,43.656C253.751,41.46 253.143,38.893 253.143,35.954C253.143,32.982 253.743,30.406 254.942,28.228C256.141,26.049 257.822,24.377 259.983,23.212C262.145,22.046 264.611,21.464 267.381,21.464Z" style="fill:rgb(1,42,87);fill-rule:nonzero;"/>
    <path d="M303.658,21.514C306.901,21.514 309.476,22.595 311.385,24.757C313.293,26.919 314.247,29.891 314.247,33.674L314.247,50.09L305.583,50.09L305.583,34.688C305.583,32.796 305.085,31.318 304.089,30.254C303.092,29.19 301.767,28.658 300.111,28.658C298.355,28.658 296.962,29.216 295.931,30.33C294.901,31.445 294.386,33.033 294.386,35.093L294.386,50.09L285.722,50.09L285.722,12.597L294.386,12.597L294.386,26.986C295.197,25.297 296.404,23.963 298.009,22.984C299.613,22.004 301.496,21.514 303.658,21.514Z" style="fill:rgb(1,42,87);fill-rule:nonzero;"/>
    <path d="M319.708,11.276L319.708,12.184L318.126,12.184L318.126,17L316.983,17L316.983,12.184L315.41,12.184L315.41,11.276L319.708,11.276Z" style="fill:rgb(1,42,87);fill-rule:nonzero;"/>
    <path d="M326.51,11.341L326.51,17L325.375,17L325.375,13.051L323.924,17L322.935,17L321.483,13.068L321.483,17L320.34,17L320.34,11.341L321.726,11.341L323.445,15.597L325.132,11.341L326.51,11.341Z" style="fill:rgb(1,42,87);fill-rule:nonzero;"/>
</svg>
